<svg xmlns="http://www.w3.org/2000/svg" width="22.814" height="27.983" viewBox="0 0 22.814 27.983">
  <g id="apple_icon" transform="translate(-2.104)">
    <g id="Group_19" data-name="Group 19" transform="translate(2.104)">
      <g id="Group_18" data-name="Group 18">
        <path id="Path_26" data-name="Path 26" d="M16.782,0h.2a5.992,5.992,0,0,1-1.509,4.516,4.678,4.678,0,0,1-4.118,1.933,5.812,5.812,0,0,1,1.536-4.376A6.634,6.634,0,0,1,16.782,0Z" transform="translate(0.009)" fill="#fff"/>
        <path id="Path_27" data-name="Path 27" d="M24.918,19.284v.055a16.281,16.281,0,0,1-2.33,4.491C21.7,25.053,20.611,26.7,18.667,26.7c-1.68,0-2.8-1.08-4.517-1.11-1.821-.029-2.823.9-4.488,1.138H9.095a5.07,5.07,0,0,1-2.928-2.018A17.677,17.677,0,0,1,2.1,14.54V13.288A8.2,8.2,0,0,1,5.685,6.556a6.047,6.047,0,0,1,4.06-.94,10.213,10.213,0,0,1,1.989.57,5.493,5.493,0,0,0,1.988.6,4.773,4.773,0,0,0,1.395-.426,8.581,8.581,0,0,1,4.488-.8,6.226,6.226,0,0,1,4.575,2.728A5.871,5.871,0,0,0,21.2,14.112,6.013,6.013,0,0,0,24.918,19.284Z" transform="translate(-2.104 1.256)" fill="#fff"/>
      </g>
    </g>
  </g>
</svg>
