<svg id="Group_5054" data-name="Group 5054" xmlns="http://www.w3.org/2000/svg" width="21.5" height="21.5" viewBox="0 0 21.5 21.5">
  <g id="Group_5053" data-name="Group 5053" transform="translate(0 0)">
    <g id="Group_5052" data-name="Group 5052" transform="translate(0 0)">
      <path id="Path_3239" data-name="Path 3239" d="M21.475,15.779l-3.007-3a2,2,0,0,0-3.329.75,2.047,2.047,0,0,1-2.362,1.286A9.262,9.262,0,0,1,7.194,9.242,1.941,1.941,0,0,1,8.482,6.885a1.994,1.994,0,0,0,.752-3.322l-3.007-3a2.148,2.148,0,0,0-2.9,0L1.288,2.6c-2.04,2.143.215,7.822,5.262,12.859s10.738,7.394,12.886,5.251l2.04-2.036A2.137,2.137,0,0,0,21.475,15.779Z" transform="translate(-0.539 0)" fill="#fff"/>
    </g>
  </g>
</svg>
