<svg xmlns="http://www.w3.org/2000/svg" width="21.259" height="18.425" viewBox="0 0 21.259 18.425">
  <g id="Group_5546" data-name="Group 5546" transform="translate(-1 -3)">
    <path id="Path_3435" data-name="Path 3435" d="M19.671,5.835H16.628l-.354-1.063A2.583,2.583,0,0,0,13.819,3H9.441A2.584,2.584,0,0,0,6.986,4.772L6.631,5.835H3.588A2.591,2.591,0,0,0,1,8.423V18.84a2.591,2.591,0,0,0,2.588,2.585H19.674a2.591,2.591,0,0,0,2.585-2.588V8.42A2.591,2.591,0,0,0,19.671,5.835Zm1.171,13a1.172,1.172,0,0,1-1.171,1.171H3.588a1.172,1.172,0,0,1-1.171-1.171V8.42A1.172,1.172,0,0,1,3.588,7.252H7.142a.709.709,0,0,0,.672-.485l.517-1.55a1.169,1.169,0,0,1,1.11-.8h4.378a1.169,1.169,0,0,1,1.11.8l.517,1.549a.709.709,0,0,0,.672.485h3.554a1.172,1.172,0,0,1,1.171,1.171Z" fill="#fff"/>
    <path id="Path_3436" data-name="Path 3436" d="M13.815,10a5.315,5.315,0,1,0,5.315,5.315A5.315,5.315,0,0,0,13.815,10Zm0,9.212a3.9,3.9,0,1,1,3.9-3.9,3.9,3.9,0,0,1-3.9,3.9Z" transform="translate(-2.185 -2.039)" fill="#fff"/>
    <circle id="Ellipse_2917" data-name="Ellipse 2917" cx="1" cy="1" r="1" transform="translate(17.63 8.213)" fill="#fff"/>
  </g>
</svg>
