<svg id="Group_114" data-name="Group 114" xmlns="http://www.w3.org/2000/svg" width="21.163" height="21.163" viewBox="0 0 21.163 21.163">
  <path id="Path_35" data-name="Path 35" d="M10.582,0A10.583,10.583,0,0,0,1.4,15.849L.04,20.083a.827.827,0,0,0,1.04,1.04L5.314,19.76A10.582,10.582,0,1,0,10.582,0Zm0,19.51a8.9,8.9,0,0,1-4.726-1.353.827.827,0,0,0-.692-.086l-3.056.984L3.092,16a.827.827,0,0,0-.086-.692,8.929,8.929,0,1,1,7.576,4.2Zm1.033-8.928a1.033,1.033,0,1,1-1.033-1.033A1.033,1.033,0,0,1,11.615,10.582Zm4.133,0a1.033,1.033,0,1,1-1.033-1.033A1.033,1.033,0,0,1,15.749,10.582Zm-8.267,0A1.033,1.033,0,1,1,6.448,9.548,1.033,1.033,0,0,1,7.482,10.582Zm0,0" fill="#fff"/>
</svg>
