<svg id="committed_icon" xmlns="http://www.w3.org/2000/svg" width="31.977" height="24.416" viewBox="0 0 31.977 24.416">
  <g id="Group_2762" data-name="Group 2762" transform="translate(0 0)">
    <g id="Group_2761" data-name="Group 2761">
      <path id="Path_1847" data-name="Path 1847" d="M30.13,50a5.881,5.881,0,0,0-4.67-1.8,7.937,7.937,0,0,0-4.776,2.743A7.966,7.966,0,0,0,15.9,48.2a5.881,5.881,0,0,0-4.67,1.8,5.492,5.492,0,0,0-1.8,3.49A6.226,6.226,0,0,0,6,52.345a6.063,6.063,0,0,0-4.149,1.833A5.743,5.743,0,0,0,.091,59.412C.775,64.238,6.367,70.2,11.018,72.536a.628.628,0,0,0,.565,0,24.214,24.214,0,0,0,6.753-5.423A18.117,18.117,0,0,0,20.4,68.368a.628.628,0,0,0,.565,0c4.619-2.329,10.243-8.31,10.921-13.137A5.743,5.743,0,0,0,30.13,50ZM11.3,71.274c-4.287-2.291-9.352-7.689-9.967-12.038A4.481,4.481,0,0,1,2.7,55.1,4.858,4.858,0,0,1,6,53.612c2.693,0,4.77,2.837,4.789,2.868a.622.622,0,0,0,1.017,0s2.09-2.868,4.814-2.868a4.858,4.858,0,0,1,3.3,1.488,4.481,4.481,0,0,1,1.375,4.136C20.653,63.586,15.587,68.983,11.3,71.274ZM30.645,55.056C30.017,59.4,25,64.8,20.678,67.088a17.5,17.5,0,0,1-1.55-.941,14.947,14.947,0,0,0,3.358-6.735,5.743,5.743,0,0,0-1.757-5.235,6.063,6.063,0,0,0-4.111-1.82c-2.479,0-4.394,1.789-5.3,2.768a6.561,6.561,0,0,0-.628-.628,4.393,4.393,0,0,1,1.418-3.559,4.707,4.707,0,0,1,3.684-1.469c2.511.251,4.394,2.824,4.394,2.85a.622.622,0,0,0,1.017,0s1.883-2.592,4.394-2.843a4.7,4.7,0,0,1,3.691,1.469A4.481,4.481,0,0,1,30.645,55.056Z" transform="translate(-0.001 -48.187)" fill="#fff"/>
    </g>
  </g>
</svg>
