<svg id="Group_5405" data-name="Group 5405" xmlns="http://www.w3.org/2000/svg" width="40" height="40" viewBox="0 0 40 40">
  <g id="Group_5404" data-name="Group 5404">
    <path id="Path_3398" data-name="Path 3398" d="M29.02,218.742l-4.01,10.008H0v-3.516a15.236,15.236,0,0,1,29.02-6.492Z" transform="translate(0 -193.594)" fill="#bb85bb"/>
    <g id="Group_5402" data-name="Group 5402" transform="translate(7.031)">
      <path id="Path_3399" data-name="Path 3399" d="M98.2,0a8.2,8.2,0,1,0,8.2,8.2A8.212,8.212,0,0,0,98.2,0Z" transform="translate(-90)" fill="#bb85bb"/>
    </g>
    <path id="Path_3400" data-name="Path 3400" d="M195,16.406V0a8.2,8.2,0,0,1,0,16.406Z" transform="translate(-179.766)" fill="#ad67ad"/>
    <path id="Path_3401" data-name="Path 3401" d="M208.785,218.742l-4.01,10.008H195V210A15.234,15.234,0,0,1,208.785,218.742Z" transform="translate(-179.766 -193.594)" fill="#ad67ad"/>
    <g id="Group_5403" data-name="Group 5403" transform="translate(23.594 23.594)">
      <path id="Path_3402" data-name="Path 3402" d="M310.2,302a8.2,8.2,0,1,0,8.2,8.2A8.212,8.212,0,0,0,310.2,302Z" transform="translate(-302 -302)" fill="#ff637b"/>
    </g>
    <path id="Path_3403" data-name="Path 3403" d="M415.2,310.2a8.212,8.212,0,0,1-8.2,8.2V302A8.212,8.212,0,0,1,415.2,310.2Z" transform="translate(-375.203 -278.406)" fill="#e63950"/>
    <path id="Path_3404" data-name="Path 3404" d="M371.22,369.563l1.516,1.515-1.658,1.658-1.515-1.516-1.515,1.516-1.658-1.658,1.516-1.515-1.516-1.515,1.658-1.658,1.515,1.516,1.515-1.516,1.658,1.658Z" transform="translate(-337.766 -337.766)" fill="#171717"/>
    <path id="Path_3405" data-name="Path 3405" d="M408.657,369.563l1.516,1.515-1.658,1.658L407,371.22v-3.314l1.515-1.516,1.658,1.658Z" transform="translate(-375.203 -337.766)" fill="#171717"/>
  </g>
</svg>
