<svg xmlns="http://www.w3.org/2000/svg" width="13" height="25.003" viewBox="0 0 13 25.003">
  <g id="Group_26" data-name="Group 26" transform="translate(-28.374 -9.999)">
    <g id="_x30_1._Facebook" transform="translate(28.374 9.999)">
      <path id="Icon_11_" d="M32,24.116H29.012c-.47,0-.638-.176-.638-.668q0-1.9,0-3.791c0-.486.178-.671.642-.671H32c0-.087,0-1.911,0-2.751a7.08,7.08,0,0,1,.821-3.519A5.034,5.034,0,0,1,35.5,10.4a6.406,6.406,0,0,1,2.3-.4q1.478,0,2.956,0c.424,0,.611.2.612.639q0,1.783,0,3.565c0,.448-.181.628-.614.633-.808.009-1.616,0-2.423.037-.815,0-1.243.414-1.243,1.291-.02.928-.008,1.856-.008,2.818h3.479c.492,0,.661.176.661.691q0,1.885,0,3.77c0,.507-.158.669-.654.669H37.075V34.287c0,.542-.164.715-.679.715H32.632c-.455,0-.632-.184-.632-.657C32,31.033,32,24.232,32,24.116Z" transform="translate(-28.374 -9.999)" fill="#3d6ad6"/>
    </g>
  </g>
</svg>
