<svg xmlns="http://www.w3.org/2000/svg" width="19" height="29" viewBox="0 0 19 29">
  <path id="female_icon" d="M102.22,16.435a9.732,9.732,0,0,0,0-13.619,9.427,9.427,0,0,0-13.441,0,9.732,9.732,0,0,0,0,13.619,9.409,9.409,0,0,0,5.6,2.75v3.224H92.145a1.133,1.133,0,0,0,0,2.266h2.236v3.192a1.118,1.118,0,1,0,2.236,0V24.675h2.236a1.133,1.133,0,0,0,0-2.266H96.618V19.185A9.41,9.41,0,0,0,102.22,16.435Zm-11.86-1.6a7.442,7.442,0,0,1,0-10.415,7.209,7.209,0,0,1,10.279,0,7.442,7.442,0,0,1,0,10.415A7.209,7.209,0,0,1,90.36,14.833Z" transform="translate(-86 0)" fill="#fff"/>
</svg>
