<svg id="google_icon" xmlns="http://www.w3.org/2000/svg" width="25.001" height="25.001" viewBox="0 0 25.001 25.001">
  <path id="Path_28" data-name="Path 28" d="M5.541,146.625l-.87,3.249-3.181.067A12.523,12.523,0,0,1,1.4,138.268h0l2.832.519,1.24,2.815a7.46,7.46,0,0,0,.07,5.023Z" transform="translate(0 -131.516)" fill="#fbbb00"/>
  <path id="Path_29" data-name="Path 29" d="M273.635,208.176a12.5,12.5,0,0,1-4.456,12.084h0l-3.567-.182-.5-3.151a7.45,7.45,0,0,0,3.206-3.8h-6.684v-4.945h12.007Z" transform="translate(-248.852 -198.011)" fill="#518ef8"/>
  <path id="Path_30" data-name="Path 30" d="M49.345,316.549h0a12.5,12.5,0,0,1-18.837-3.824l4.051-3.316a7.435,7.435,0,0,0,10.713,3.807Z" transform="translate(-29.019 -294.3)" fill="#28b446"/>
  <path id="Path_31" data-name="Path 31" d="M47.706,2.878l-4.05,3.315A7.434,7.434,0,0,0,32.7,10.086L28.625,6.752h0A12.5,12.5,0,0,1,47.706,2.878Z" transform="translate(-27.226)" fill="#f14336"/>
</svg>
