<svg id="Group_5228" data-name="Group 5228" xmlns="http://www.w3.org/2000/svg" xmlns:xlink="http://www.w3.org/1999/xlink" width="25.209" height="25.209" viewBox="0 0 25.209 25.209">
  <defs>
    <linearGradient id="linear-gradient" x1="0.084" y1="0.916" x2="0.916" y2="0.084" gradientUnits="objectBoundingBox">
      <stop offset="0" stop-color="#ffd600"/>
      <stop offset="0.5" stop-color="#ff0100"/>
      <stop offset="1" stop-color="#d800b9"/>
    </linearGradient>
    <linearGradient id="linear-gradient-2" x1="0.146" y1="0.854" x2="0.854" y2="0.146" gradientUnits="objectBoundingBox">
      <stop offset="0" stop-color="#ff6400"/>
      <stop offset="0.5" stop-color="#ff0100"/>
      <stop offset="1" stop-color="#fd0056"/>
    </linearGradient>
    <linearGradient id="linear-gradient-3" x1="0.146" y1="0.854" x2="0.854" y2="0.146" gradientUnits="objectBoundingBox">
      <stop offset="0" stop-color="#f30072"/>
      <stop offset="1" stop-color="#e50097"/>
    </linearGradient>
  </defs>
  <path id="Path_3328" data-name="Path 3328" d="M25.133,7.408a9.254,9.254,0,0,0-.586-3.06,6.177,6.177,0,0,0-1.454-2.233A6.179,6.179,0,0,0,20.861.661,9.252,9.252,0,0,0,17.8.076C16.457.015,16.028,0,12.6,0s-3.853.015-5.2.076a9.255,9.255,0,0,0-3.06.586A6.178,6.178,0,0,0,2.116,2.116,6.179,6.179,0,0,0,.661,4.348a9.253,9.253,0,0,0-.585,3.06C.015,8.752,0,9.181,0,12.6s.015,3.853.076,5.2a9.251,9.251,0,0,0,.586,3.06,6.177,6.177,0,0,0,1.454,2.232,6.176,6.176,0,0,0,2.233,1.454,9.249,9.249,0,0,0,3.06.586c1.344.061,1.774.076,5.2.076s3.853-.014,5.2-.076a9.25,9.25,0,0,0,3.06-.586,6.444,6.444,0,0,0,3.686-3.686,9.251,9.251,0,0,0,.586-3.06c.061-1.344.076-1.774.076-5.2S25.195,8.752,25.133,7.408ZM22.864,17.7a6.974,6.974,0,0,1-.434,2.34,4.174,4.174,0,0,1-2.392,2.392,6.974,6.974,0,0,1-2.34.434c-1.329.061-1.728.073-5.093.073s-3.764-.013-5.093-.073a6.976,6.976,0,0,1-2.34-.434,3.906,3.906,0,0,1-1.449-.943,3.9,3.9,0,0,1-.943-1.449,6.974,6.974,0,0,1-.434-2.34c-.061-1.329-.073-1.728-.073-5.093s.013-3.764.073-5.093a6.979,6.979,0,0,1,.434-2.34,3.908,3.908,0,0,1,.943-1.449,3.9,3.9,0,0,1,1.449-.943,6.973,6.973,0,0,1,2.34-.434c1.329-.061,1.728-.073,5.093-.073h0c3.366,0,3.764.013,5.093.074a6.975,6.975,0,0,1,2.34.434,3.908,3.908,0,0,1,1.449.943,3.9,3.9,0,0,1,.943,1.449,6.968,6.968,0,0,1,.434,2.34c.061,1.329.073,1.728.073,5.093S22.925,16.369,22.864,17.7Zm0,0" transform="translate(0 0)" fill="url(#linear-gradient)"/>
  <path id="Path_3329" data-name="Path 3329" d="M131.012,124.539a6.473,6.473,0,1,0,6.473,6.473A6.473,6.473,0,0,0,131.012,124.539Zm0,10.674a4.2,4.2,0,1,1,4.2-4.2A4.2,4.2,0,0,1,131.012,135.213Zm0,0" transform="translate(-118.407 -118.407)" fill="url(#linear-gradient-2)"/>
  <path id="Path_3330" data-name="Path 3330" d="M364.955,90.138a1.513,1.513,0,1,1-1.513-1.513A1.513,1.513,0,0,1,364.955,90.138Zm0,0" transform="translate(-344.109 -84.261)" fill="url(#linear-gradient-3)"/>
</svg>
