<svg xmlns="http://www.w3.org/2000/svg" width="121" height="121" viewBox="0 0 121 121">
  <g id="Group_2664" data-name="Group 2664" transform="translate(-147 -221)">
    <g id="Ellipse_29" data-name="Ellipse 29" transform="translate(147 221)" fill="#171717" stroke="#bb85bb" stroke-width="2">
      <circle cx="60.5" cy="60.5" r="60.5" stroke="none"/>
      <circle cx="60.5" cy="60.5" r="59.5" fill="none"/>
    </g>
    <g id="Group_2666" data-name="Group 2666" transform="translate(175.611 247.611)">
      <g id="Page-1">
        <g id="_010---Secure-Password" data-name="010---Secure-Password">
          <g id="Icons_copy" transform="translate(0.847 1.08)">
            <rect id="Rectangle-path" width="64" height="15" rx="2" transform="translate(-0.458 35.31)" fill="#fff"/>
            <path id="Shape" d="M56.239,33H53a2.166,2.166,0,0,1,2.159,2.159v10.8A2.166,2.166,0,0,1,53,48.115h3.239A2.166,2.166,0,0,0,58.4,45.956v-10.8A2.166,2.166,0,0,0,56.239,33Z" transform="translate(4.454 2.628)" fill="#fff"/>
            <path id="Shape-2" data-name="Shape" d="M53.345,26.319v7.558H8V26.319A4.319,4.319,0,0,1,12.319,22H49.027A4.319,4.319,0,0,1,53.345,26.319Z" transform="translate(0.87 1.752)" fill="#171717"/>
            <path id="Shape-3" data-name="Shape" d="M53.345,47v7.558a4.319,4.319,0,0,1-4.319,4.319H12.319A4.319,4.319,0,0,1,8,54.558V47Z" transform="translate(0.87 3.743)" fill="#171717"/>
            <path id="Shape-4" data-name="Shape" d="M47.549,17.274v6.478H41.071V17.274a10.8,10.8,0,0,0-21.593,0v6.478H13V17.274a17.274,17.274,0,1,1,34.549,0Z" transform="translate(1.268 0)" fill="#171717"/>
          </g>
          <g id="Icons">
            <path id="Shape-5" data-name="Shape" d="M3.239,52.9h5.4v6.478a5.4,5.4,0,0,0,5.4,5.4H50.743a5.4,5.4,0,0,0,5.4-5.4V52.9h5.4a3.239,3.239,0,0,0,3.239-3.239v-10.8a3.239,3.239,0,0,0-3.239-3.239h-5.4V29.15a5.4,5.4,0,0,0-5.4-5.4v-5.4a18.354,18.354,0,1,0-36.708,0v5.4a5.4,5.4,0,0,0-5.4,5.4v6.478h-5.4A3.239,3.239,0,0,0,0,38.867v10.8A3.239,3.239,0,0,0,3.239,52.9Zm50.743,6.478a3.239,3.239,0,0,1-3.239,3.239H14.035A3.239,3.239,0,0,1,10.8,59.381V52.9H53.982ZM16.195,18.354a16.195,16.195,0,1,1,32.389,0v5.4H44.266v-5.4a11.876,11.876,0,0,0-23.752,0v5.4H16.195Zm6.478,5.4v-5.4a9.717,9.717,0,1,1,19.434,0v5.4ZM10.8,29.15a3.239,3.239,0,0,1,3.239-3.239H50.743a3.239,3.239,0,0,1,3.239,3.239v6.478H10.8ZM2.159,38.867a1.08,1.08,0,0,1,1.08-1.08h58.3a1.08,1.08,0,0,1,1.08,1.08v10.8a1.08,1.08,0,0,1-1.08,1.08H3.239a1.08,1.08,0,0,1-1.08-1.08Z" fill="#fff"/>
            <rect id="Rectangle_1087" data-name="Rectangle 1087" width="66" height="19" rx="4" transform="translate(-0.611 34.389)" fill="#bb85bb"/>
            <path id="Shape-6" data-name="Shape" d="M4.181,44.077a1.08,1.08,0,0,0,1.5.3l1.56-1.041v1.222a1.08,1.08,0,1,0,2.159,0V43.335l1.56,1.041a1.08,1.08,0,0,0,1.2-1.8l-1.895-1.261,1.892-1.261a1.08,1.08,0,1,0-1.2-1.8L9.4,39.3V38.08a1.08,1.08,0,1,0-2.159,0V39.3l-1.56-1.041a1.08,1.08,0,1,0-1.2,1.8l1.895,1.261L4.48,42.58a1.08,1.08,0,0,0-.3,1.5Z" transform="translate(0.319 2.947)" fill="#171717"/>
            <path id="Shape-7" data-name="Shape" d="M15.181,44.077a1.08,1.08,0,0,0,1.5.3l1.56-1.041v1.222a1.08,1.08,0,1,0,2.159,0V43.335l1.56,1.041a1.08,1.08,0,0,0,1.2-1.8l-1.895-1.261,1.892-1.261a1.08,1.08,0,1,0-1.2-1.8L20.4,39.3V38.08a1.08,1.08,0,0,0-2.159,0V39.3l-1.56-1.041a1.08,1.08,0,1,0-1.2,1.8l1.895,1.261L15.484,42.58a1.08,1.08,0,0,0-.3,1.5Z" transform="translate(1.195 2.947)" fill="#171717"/>
            <path id="Shape-8" data-name="Shape" d="M37.181,44.077a1.08,1.08,0,0,0,1.5.3l1.56-1.041v1.222a1.08,1.08,0,1,0,2.159,0V43.335l1.56,1.041a1.08,1.08,0,0,0,1.2-1.8l-1.895-1.261,1.892-1.261a1.08,1.08,0,1,0-1.2-1.8L42.4,39.3V38.08a1.08,1.08,0,1,0-2.159,0V39.3l-1.56-1.041a1.08,1.08,0,0,0-1.2,1.8l1.895,1.261L37.484,42.58a1.08,1.08,0,0,0-.3,1.5Z" transform="translate(2.947 2.947)" fill="#171717"/>
            <path id="Shape-9" data-name="Shape" d="M26.181,44.077a1.08,1.08,0,0,0,1.5.3l1.56-1.041v1.222a1.08,1.08,0,1,0,2.159,0V43.335l1.56,1.041a1.08,1.08,0,0,0,1.2-1.8l-1.895-1.261,1.892-1.261a1.08,1.08,0,0,0-1.2-1.8L31.4,39.3V38.08a1.08,1.08,0,1,0-2.159,0V39.3l-1.56-1.041a1.08,1.08,0,1,0-1.2,1.8l1.895,1.261L26.484,42.58a1.08,1.08,0,0,0-.3,1.5Z" transform="translate(2.071 2.947)" fill="#171717"/>
            <path id="Shape-10" data-name="Shape" d="M16.319,26H13.08A1.08,1.08,0,0,0,12,27.08v3.239a1.08,1.08,0,1,0,2.159,0V28.159h2.159a1.08,1.08,0,1,0,0-2.159Z" transform="translate(0.956 2.071)" fill="#fff"/>
            <path id="Shape-11" data-name="Shape" d="M49.08,45.159h6.478a1.08,1.08,0,0,0,0-2.159H49.08a1.08,1.08,0,0,0,0,2.159Z" transform="translate(3.823 3.425)" fill="#171717"/>
          </g>
        </g>
      </g>
    </g>
  </g>
</svg>
