<svg id="male_icon" xmlns="http://www.w3.org/2000/svg" width="26" height="26" viewBox="0 0 26 26">
  <path id="Path_1837" data-name="Path 1837" d="M25.986.944a1.073,1.073,0,0,0-.067-.268.033.033,0,0,1,0-.008v0A1.1,1.1,0,0,0,25.77.422C25.756.4,25.742.387,25.727.371a1.105,1.105,0,0,0-.207-.187l-.007,0a1.067,1.067,0,0,0-.246-.117c-.022-.008-.043-.014-.065-.02A1.08,1.08,0,0,0,24.917,0H17.333a1.083,1.083,0,0,0,0,2.167H22.3L15.835,8.633a9.756,9.756,0,1,0,1.532,1.532L23.833,3.7V8.667a1.083,1.083,0,0,0,2.167,0V1.083c0-.023-.005-.044-.007-.067S25.989.968,25.986.944ZM9.75,23.833a7.588,7.588,0,1,1,7.583-7.583A7.592,7.592,0,0,1,9.75,23.833Zm0,0" transform="translate(0 0)" fill="#fff"/>
</svg>
