<svg id="other_icon" xmlns="http://www.w3.org/2000/svg" width="31.279" height="31.218" viewBox="0 0 31.279 31.218">
  <path id="Path_1839" data-name="Path 1839" d="M31.094,1.465a.977.977,0,0,0-.694-.4L24.854.5a.977.977,0,1,0-.2,1.945l2.983.3L23.274,5.9a8.618,8.618,0,0,0-12.859.115,8.631,8.631,0,1,0-2.762,17.02v2.83H4.736a.977.977,0,1,0,0,1.955H7.653V30.74a.977.977,0,1,0,1.955,0V27.822h2.918a.977.977,0,1,0,0-1.955H9.608v-2.83a8.621,8.621,0,0,0,5.5-2.882,8.634,8.634,0,0,0,1.784.186h0A8.627,8.627,0,0,0,24.42,7.487l4.366-3.151-.654,2.926a.977.977,0,1,0,1.908.427L31.256,2.25a.978.978,0,0,0-.161-.785ZM14.36,17.885a6.671,6.671,0,0,1-3.193-9.6,6.671,6.671,0,0,1,3.193,9.6ZM8.631,21.138a6.676,6.676,0,0,1,0-13.351c.191,0,.38.008.567.024a8.626,8.626,0,0,0,3.871,11.633A6.648,6.648,0,0,1,8.631,21.138Zm12.986-4.707a6.632,6.632,0,0,1-4.72,1.955c-.191,0-.38-.008-.567-.024A8.626,8.626,0,0,0,12.458,6.729a6.674,6.674,0,0,1,9.159,9.7Z" transform="translate(0 -0.499)" fill="#fff"/>
</svg>
