<svg xmlns="http://www.w3.org/2000/svg" width="21.26" height="21.26" viewBox="0 0 21.26 21.26">
  <g id="Group_5547" data-name="Group 5547" transform="translate(-2 -2)">
    <path id="Path_3437" data-name="Path 3437" d="M19.329,2H5.931A3.935,3.935,0,0,0,2,5.931v13.4A3.935,3.935,0,0,0,5.931,23.26h13.4c.03,0,.058-.008.089-.009l.046.009a.8.8,0,0,0,.145-.028,3.924,3.924,0,0,0,3.651-3.9V5.931A3.935,3.935,0,0,0,19.329,2ZM5.931,3.519h13.4a2.415,2.415,0,0,1,2.412,2.412V16.264L18.33,12.852a.759.759,0,0,0-1.074,0l-3.184,3.184-6.6-6.6a.759.759,0,0,0-1.074,0l-2.88,2.88V5.931A2.415,2.415,0,0,1,5.931,3.519ZM3.519,19.329V14.463l3.417-3.417,10.7,10.7H5.931a2.415,2.415,0,0,1-2.412-2.412ZM19.737,21.7,15.146,17.11l2.647-2.647,3.948,3.948v.918a2.412,2.412,0,0,1-2,2.371Z" fill="#fff"/>
    <path id="Path_3438" data-name="Path 3438" d="M21.657,11.315A2.657,2.657,0,1,0,19,8.657,2.657,2.657,0,0,0,21.657,11.315Zm0-3.8a1.139,1.139,0,1,1-1.139,1.139A1.139,1.139,0,0,1,21.657,7.519Z" transform="translate(-4.092 -0.963)" fill="#fff"/>
  </g>
</svg>
