<svg xmlns="http://www.w3.org/2000/svg" width="25.311" height="20.851" viewBox="0 0 25.311 20.851">
  <path id="single_icon" d="M50.155,96.844a3.164,3.164,0,0,1-1.71-.5,42.406,42.406,0,0,1-6.588-5.173c-2.891-2.865-4.357-5.563-4.357-8.021a7.375,7.375,0,0,1,1.461-4.525,6.672,6.672,0,0,1,7.987-2.071,8.013,8.013,0,0,1,3.208,2.606,7.965,7.965,0,0,1,3.208-2.606,6.672,6.672,0,0,1,7.986,2.071,7.375,7.375,0,0,1,1.461,4.525c0,2.458-1.466,5.155-4.357,8.018a42.352,42.352,0,0,1-6.588,5.173,3.164,3.164,0,0,1-1.71.5Zm-5.9-19.4a5.178,5.178,0,0,0-1.356.18A5.267,5.267,0,0,0,40.112,79.5a5.945,5.945,0,0,0-1.164,3.649c0,2.057,1.321,4.409,3.928,6.99a40.544,40.544,0,0,0,6.352,4.981,1.721,1.721,0,0,0,1.853,0,40.937,40.937,0,0,0,6.352-4.981c2.606-2.581,3.928-4.932,3.928-6.99A5.949,5.949,0,0,0,60.2,79.5a5.267,5.267,0,0,0-2.789-1.879c-1.979-.537-4.76.024-6.631,3.213a.723.723,0,0,1-1.249,0,6.108,6.108,0,0,0-5.272-3.393Z" transform="translate(-37.5 -75.992)" fill="#fff"/>
</svg>
