<svg xmlns="http://www.w3.org/2000/svg" width="19.631" height="17.098" viewBox="0 0 19.631 17.098">
  <g id="Group_5503" data-name="Group 5503" transform="translate(-4.25 -5.25)">
    <path id="Path_3420" data-name="Path 3420" d="M14.66,18.27l3.8,3.8a.95.95,0,0,0,1.343,0l3.8-3.8a.95.95,0,1,0-1.343-1.343L20.081,19.1V6.2a.95.95,0,1,0-1.9,0V19.1L16,16.927A.95.95,0,1,0,14.66,18.27ZM9.671,5.528a.95.95,0,0,0-1.343,0l-3.8,3.8a.95.95,0,1,0,1.343,1.343L8.05,8.493V21.4a.95.95,0,1,0,1.9,0V8.493l2.178,2.178a.95.95,0,0,0,1.343-1.343Z" transform="translate(0)" fill="#fff" fill-rule="evenodd"/>
  </g>
</svg>
