<svg xmlns="http://www.w3.org/2000/svg" width="25.879" height="21.026" viewBox="0 0 25.879 21.026">
  <g id="Group_5227" data-name="Group 5227" transform="translate(0 -48)">
    <path id="Path_3327" data-name="Path 3327" d="M25.879,50.489a11.061,11.061,0,0,1-3.057.838,5.276,5.276,0,0,0,2.334-2.932,10.6,10.6,0,0,1-3.364,1.284,5.3,5.3,0,0,0-9.177,3.628,5.463,5.463,0,0,0,.123,1.21A15.017,15.017,0,0,1,1.8,48.967a5.307,5.307,0,0,0,1.63,7.091,5.239,5.239,0,0,1-2.4-.653v.058a5.33,5.33,0,0,0,4.251,5.213,5.3,5.3,0,0,1-1.391.175,4.691,4.691,0,0,1-1-.091,5.356,5.356,0,0,0,4.957,3.7A10.66,10.66,0,0,1,1.27,66.718,9.937,9.937,0,0,1,0,66.646a14.936,14.936,0,0,0,8.139,2.381,15,15,0,0,0,15.1-15.1c0-.235-.008-.461-.019-.686A10.584,10.584,0,0,0,25.879,50.489Z" fill="#03a9f4"/>
  </g>
</svg>
