<svg xmlns="http://www.w3.org/2000/svg" width="121" height="121" viewBox="0 0 121 121">
  <g id="Group_2671" data-name="Group 2671" transform="translate(-147 -430)">
    <g id="Ellipse_30" data-name="Ellipse 30" transform="translate(147 430)" fill="rgba(187,133,187,0.08)" stroke="#bb85bb" stroke-width="2">
      <circle cx="60.5" cy="60.5" r="60.5" stroke="none"/>
      <circle cx="60.5" cy="60.5" r="59.5" fill="none"/>
    </g>
    <g id="Group_4901" data-name="Group 4901" transform="translate(160.651 440.757)">
      <path id="Path_3130" data-name="Path 3130" d="M84.706,33.1a.571.571,0,0,0,.571.571h3.329a.571.571,0,0,0,.571-.571V30.88a8.861,8.861,0,1,1,17.722,0V33.1a.571.571,0,0,0,.571.571H110.8a.571.571,0,0,0,.571-.571V30.88a13.333,13.333,0,1,0-26.665,0Z" transform="translate(-50.896 0)" fill="#bb85bb"/>
      <path id="Path_3131" data-name="Path 3131" d="M106.067,75.236a3.055,3.055,0,0,0-3.055-3.055h-27a3.055,3.055,0,0,0-3.055,3.055V85.4a12.989,12.989,0,0,0,12.99,12.989h7.127A12.989,12.989,0,0,0,106.067,85.4Z" transform="translate(-42.372 -39.654)" fill="#bb85bb"/>
      <path id="Path_3132" data-name="Path 3132" d="M113.226,88.605a.571.571,0,0,0-.571-.571H89.384a.571.571,0,0,0-.571.571v8.3a8.643,8.643,0,0,0,8.643,8.643h7.127a8.643,8.643,0,0,0,8.643-8.643Z" transform="translate(-53.877 -51.161)" fill="#faf5fa"/>
      <path id="Path_3133" data-name="Path 3133" d="M102.02,132.506a.571.571,0,0,0,.135.823,8.6,8.6,0,0,0,4.8,1.455h7.127a8.6,8.6,0,0,0,4.8-1.455.571.571,0,0,0,.135-.823,10.715,10.715,0,0,0-17,0Z" transform="translate(-63.377 -80.397)" fill="#bb85bb"/>
      <circle id="Ellipse_2875" data-name="Ellipse 2875" cx="3.83" cy="3.83" r="3.83" transform="translate(43.312 38.98)" fill="#bb85bb"/>
      <path id="Path_3134" data-name="Path 3134" d="M79.7,178.953a6.283,6.283,0,0,0-6.283-6.283H20.866a6.283,6.283,0,0,0-6.283,6.283v8.386a6.283,6.283,0,0,0,6.283,6.283H73.418a6.283,6.283,0,0,0,6.283-6.283Z" transform="translate(0 -112.591)" fill="#bb85bb"/>
      <path id="Path_3135" data-name="Path 3135" d="M54.621,187.6a.571.571,0,0,0-.78.209l-.949,1.643-.949-1.643a.571.571,0,0,0-.78-.209l-2.887,1.667a.571.571,0,0,0-.209.78l.949,1.643h-1.9a.571.571,0,0,0-.571.571v3.333a.571.571,0,0,0,.571.571h1.9l-.949,1.643a.571.571,0,0,0,.209.78l2.887,1.667a.571.571,0,0,0,.78-.209l.949-1.643.949,1.643a.571.571,0,0,0,.78.209l2.887-1.667a.571.571,0,0,0,.209-.78l-.949-1.643h1.9a.571.571,0,0,0,.571-.571v-3.333a.571.571,0,0,0-.571-.571h-1.9l.949-1.643a.571.571,0,0,0-.209-.78Z" transform="translate(-23.2 -123.369)" fill="#bb85bb"/>
      <path id="Path_3136" data-name="Path 3136" d="M118.266,187.6a.571.571,0,0,0-.78.209l-.949,1.643-.949-1.643a.571.571,0,0,0-.78-.209l-2.887,1.667a.571.571,0,0,0-.209.78l.949,1.643h-1.9a.571.571,0,0,0-.571.571v3.333a.571.571,0,0,0,.571.571h1.9l-.949,1.643a.571.571,0,0,0,.209.78l2.887,1.667a.571.571,0,0,0,.78-.209l.949-1.643.949,1.643a.571.571,0,0,0,.78.209l2.887-1.667a.571.571,0,0,0,.209-.78l-.949-1.643h1.9a.571.571,0,0,0,.571-.571v-3.333a.571.571,0,0,0-.571-.571h-1.9l.949-1.643a.571.571,0,0,0-.209-.78Z" transform="translate(-69.395 -123.369)" fill="#bb85bb"/>
      <path id="Path_3137" data-name="Path 3137" d="M181.911,187.6a.571.571,0,0,0-.78.209l-.949,1.643-.949-1.643a.571.571,0,0,0-.78-.209l-2.887,1.667a.571.571,0,0,0-.209.78l.949,1.643h-1.9a.571.571,0,0,0-.571.571v3.333a.571.571,0,0,0,.571.571h1.9l-.949,1.643a.571.571,0,0,0,.209.78l2.887,1.667a.571.571,0,0,0,.78-.209l.949-1.643.949,1.643a.571.571,0,0,0,.78.209l2.887-1.667a.571.571,0,0,0,.209-.78l-.949-1.643h1.9a.571.571,0,0,0,.571-.571v-3.333a.571.571,0,0,0-.571-.571h-1.9l.949-1.643a.571.571,0,0,0-.209-.78Z" transform="translate(-115.589 -123.369)" fill="#bb85bb"/>
      <g id="Group_4900" data-name="Group 4900" transform="translate(14.583 17.547)">
        <path id="Path_3138" data-name="Path 3138" d="M113.226,88.605a.571.571,0,0,0-.571-.571H89.384a.571.571,0,0,0-.571.571v8.3a8.643,8.643,0,0,0,8.643,8.643h7.127a8.643,8.643,0,0,0,8.643-8.643Zm-1.142.571V96.9a7.5,7.5,0,0,1-7.5,7.5H97.456a7.5,7.5,0,0,1-7.5-7.5V89.176Z" transform="translate(-68.46 -68.708)" fill="#bb85bb"/>
        <path id="Path_3139" data-name="Path 3139" d="M123.193,95.719a3.83,3.83,0,1,0,3.831,3.83A3.832,3.832,0,0,0,123.193,95.719Zm0,1.142a2.688,2.688,0,1,1-2.688,2.688A2.689,2.689,0,0,1,123.193,96.861Z" transform="translate(-90.634 -74.286)" fill="#bb85bb"/>
        <path id="Path_3140" data-name="Path 3140" d="M102.02,132.506a.571.571,0,0,0,.135.823,8.6,8.6,0,0,0,4.8,1.455h7.127a8.6,8.6,0,0,0,4.8-1.455.571.571,0,0,0,.135-.823,10.715,10.715,0,0,0-17,0Zm1.311.2a9.57,9.57,0,0,1,14.376,0,7.471,7.471,0,0,1-3.625.932h-7.127A7.467,7.467,0,0,1,103.332,132.709Z" transform="translate(-77.96 -97.944)" fill="#bb85bb"/>
        <path id="Path_3141" data-name="Path 3141" d="M106.067,75.236a3.055,3.055,0,0,0-3.055-3.055h-27a3.055,3.055,0,0,0-3.055,3.055V85.4a12.989,12.989,0,0,0,12.99,12.989h7.127A12.989,12.989,0,0,0,106.067,85.4Zm-1.143,0V85.4A11.847,11.847,0,0,1,93.078,97.245H85.951A11.847,11.847,0,0,1,74.1,85.4V75.236a1.912,1.912,0,0,1,1.912-1.912h27a1.912,1.912,0,0,1,1.912,1.912Z" transform="translate(-56.955 -57.201)" fill="#bb85bb"/>
        <path id="Path_3142" data-name="Path 3142" d="M84.706,33.1a.571.571,0,0,0,.571.571h3.329a.571.571,0,0,0,.571-.571V30.88a8.861,8.861,0,1,1,17.722,0V33.1a.571.571,0,0,0,.571.571H110.8a.571.571,0,0,0,.571-.571V30.88a13.333,13.333,0,1,0-26.665,0Zm1.142-.571V30.88a12.19,12.19,0,0,1,24.38,0v1.647h-2.187V30.88a10,10,0,0,0-20.007,0v1.647Z" transform="translate(-65.479 -17.547)" fill="#bb85bb"/>
        <path id="Path_3143" data-name="Path 3143" d="M79.7,178.953a6.283,6.283,0,0,0-6.283-6.283H20.866a6.283,6.283,0,0,0-6.283,6.283v8.386a6.283,6.283,0,0,0,6.283,6.283H73.418a6.283,6.283,0,0,0,6.283-6.283Zm-1.142,0v8.386a5.141,5.141,0,0,1-5.141,5.141H20.866a5.141,5.141,0,0,1-5.141-5.141v-8.386a5.141,5.141,0,0,1,5.141-5.141H73.418A5.141,5.141,0,0,1,78.559,178.953Z" transform="translate(-14.583 -130.138)" fill="#bb85bb"/>
        <path id="Path_3144" data-name="Path 3144" d="M54.621,187.6a.571.571,0,0,0-.78.209l-.949,1.643-.949-1.643a.571.571,0,0,0-.78-.209l-2.887,1.667a.571.571,0,0,0-.209.78l.949,1.643h-1.9a.571.571,0,0,0-.571.571v3.333a.571.571,0,0,0,.571.571h1.9l-.949,1.643a.571.571,0,0,0,.209.78l2.887,1.667a.571.571,0,0,0,.78-.209l.949-1.643.949,1.643a.571.571,0,0,0,.78.209l2.887-1.667a.571.571,0,0,0,.209-.78l-.949-1.643h1.9a.571.571,0,0,0,.571-.571v-3.333a.571.571,0,0,0-.571-.571h-1.9l.949-1.643a.571.571,0,0,0-.209-.78Zm-.076,1.275,1.9,1.1-1.158,2.005a.571.571,0,0,0,.495.857h2.316v2.191H55.779a.571.571,0,0,0-.495.857l1.158,2.005-1.9,1.1-1.158-2.005a.571.571,0,0,0-.989,0l-1.158,2.005-1.9-1.1,1.158-2.005A.571.571,0,0,0,50,195.02H47.69v-2.191H50a.571.571,0,0,0,.495-.857l-1.158-2.005,1.9-1.1,1.158,2.005a.571.571,0,0,0,.989,0Z" transform="translate(-37.783 -140.916)" fill="#faf5fa"/>
        <path id="Path_3145" data-name="Path 3145" d="M118.266,187.6a.571.571,0,0,0-.78.209l-.949,1.643-.949-1.643a.571.571,0,0,0-.78-.209l-2.887,1.667a.571.571,0,0,0-.209.78l.949,1.643h-1.9a.571.571,0,0,0-.571.571v3.333a.571.571,0,0,0,.571.571h1.9l-.949,1.643a.571.571,0,0,0,.209.78l2.887,1.667a.571.571,0,0,0,.78-.209l.949-1.643.949,1.643a.571.571,0,0,0,.78.209l2.887-1.667a.571.571,0,0,0,.209-.78l-.949-1.643h1.9a.571.571,0,0,0,.571-.571v-3.333a.571.571,0,0,0-.571-.571h-1.9l.949-1.643a.571.571,0,0,0-.209-.78Zm-.076,1.275,1.9,1.1-1.158,2.005a.571.571,0,0,0,.495.857h2.316v2.191h-2.316a.571.571,0,0,0-.495.857l1.158,2.005-1.9,1.1-1.158-2.005a.571.571,0,0,0-.99,0l-1.158,2.005-1.9-1.1,1.158-2.005a.571.571,0,0,0-.495-.857h-2.315v-2.191h2.315a.571.571,0,0,0,.495-.857l-1.158-2.005,1.9-1.1,1.158,2.005a.571.571,0,0,0,.99,0Z" transform="translate(-83.978 -140.916)" fill="#faf5fa"/>
        <path id="Path_3146" data-name="Path 3146" d="M181.911,187.6a.571.571,0,0,0-.78.209l-.949,1.643-.949-1.643a.571.571,0,0,0-.78-.209l-2.887,1.667a.571.571,0,0,0-.209.78l.949,1.643h-1.9a.571.571,0,0,0-.571.571v3.333a.571.571,0,0,0,.571.571h1.9l-.949,1.643a.571.571,0,0,0,.209.78l2.887,1.667a.571.571,0,0,0,.78-.209l.949-1.643.949,1.643a.571.571,0,0,0,.78.209l2.887-1.667a.571.571,0,0,0,.209-.78l-.949-1.643h1.9a.571.571,0,0,0,.571-.571v-3.333a.571.571,0,0,0-.571-.571h-1.9l.949-1.643a.571.571,0,0,0-.209-.78Zm-.077,1.275,1.9,1.1-1.158,2.005a.571.571,0,0,0,.495.857h2.316v2.191h-2.316a.571.571,0,0,0-.495.857l1.158,2.005-1.9,1.1-1.158-2.005a.571.571,0,0,0-.99,0l-1.158,2.005-1.9-1.1,1.158-2.005a.571.571,0,0,0-.495-.857H174.98v-2.191H177.3a.571.571,0,0,0,.495-.857l-1.158-2.005,1.9-1.1,1.158,2.005a.571.571,0,0,0,.99,0Z" transform="translate(-130.172 -140.916)" fill="#faf5fa"/>
      </g>
    </g>
  </g>
</svg>
